<svg width="20" height="20" viewBox="0 0 20 20" fill="none" xmlns="http://www.w3.org/2000/svg">
<path d="M9.37521 14.1665V12.1608C8.58171 12.1109 7.805 11.9207 7.07052 11.6024L5.77352 13.5952L4.72616 12.9134L5.96762 11.0054C5.75538 10.8661 5.54742 10.7166 5.34689 10.5538C4.77089 10.0897 4.24989 9.55199 3.78988 8.95649L2.49105 10.0759L2.44101 10.1149C2.18135 10.2966 1.82103 10.2558 1.60971 10.0106C1.38442 9.74909 1.41416 9.35455 1.67562 9.12922L3.08309 7.91523C2.79587 7.4298 2.54425 6.9164 2.33297 6.37959L2.20724 6.04329L2.18893 5.98225C2.11304 5.6746 2.28084 5.35311 2.58566 5.24434C2.89045 5.13565 3.22418 5.27809 3.36019 5.56416L3.38461 5.62336L3.4963 5.92183C3.73361 6.5248 4.0263 7.09148 4.36666 7.61372C4.37022 7.61765 4.37417 7.62128 4.37765 7.62532C4.41414 7.66766 4.44292 7.714 4.46615 7.76204C4.88346 8.37532 5.36747 8.92438 5.9078 9.39351L6.13302 9.58149L6.13485 9.58333L6.3497 9.75056C6.58406 9.92495 6.82742 10.0793 7.07662 10.2156C7.1157 10.2309 7.1536 10.2511 7.19015 10.2749C7.192 10.2761 7.19381 10.2773 7.19564 10.2785C8.0705 10.7322 9.02129 10.9533 9.97946 10.9218H10.021C10.9771 10.9538 11.9263 10.7338 12.7999 10.2816C12.8032 10.2794 12.8063 10.277 12.8097 10.2749C12.846 10.2512 12.8837 10.2309 12.9226 10.2156C13.2491 10.037 13.5654 9.82701 13.8656 9.58333L13.8674 9.58149L14.092 9.39351C14.6329 8.92388 15.1166 8.37367 15.5343 7.75959C15.5574 7.71228 15.5868 7.66707 15.6228 7.62532C15.6254 7.62225 15.628 7.61916 15.6307 7.61616C16.0275 7.00784 16.3599 6.33943 16.6152 5.62336L16.6402 5.56416C16.7763 5.27821 17.1094 5.1357 17.4142 5.24434C17.7393 5.36027 17.9085 5.71816 17.7926 6.04329L17.6668 6.37959C17.4555 6.91651 17.2034 7.42971 16.9161 7.91523L18.3248 9.12983C18.5861 9.35518 18.6153 9.74976 18.3901 10.0112C18.1647 10.2726 17.7702 10.3019 17.5088 10.0765L16.2093 8.95649C15.7492 9.55201 15.2284 10.0891 14.6523 10.5532L14.6529 10.5538C14.4522 10.7167 14.2441 10.8665 14.0316 11.0061L15.2736 12.9134C15.4618 13.2026 15.3802 13.5893 15.0912 13.7777C14.8019 13.966 14.4146 13.8844 14.2263 13.5952L12.9287 11.6024C12.1946 11.9206 11.4184 12.1117 10.6252 12.1615V14.1665C10.6252 14.5116 10.3453 14.7913 10.0002 14.7915C9.65503 14.7915 9.37521 14.5116 9.37521 14.1665ZM5.77352 13.5952C5.58515 13.8844 5.19789 13.966 4.90866 13.7777C4.61974 13.5893 4.53809 13.2025 4.72616 12.9134L5.77352 13.5952Z" fill="#0F0F0F"/>
</svg>
