<svg width="24" height="24" viewBox="0 0 24 24" fill="none" xmlns="http://www.w3.org/2000/svg">
<path d="M19.6433 7.11615L13.1621 3.08912C12.8075 2.86751 12.3978 2.75 11.9797 2.75C11.5615 2.75 11.1518 2.86751 10.7972 3.08912L4.31601 7.11615C3.94749 7.34834 3.655 7.68332 3.47462 8.07978C3.29423 8.47623 3.23384 8.91682 3.30088 9.34719L4.97416 19.3869C5.06209 19.9128 5.33544 20.3898 5.7447 20.7315C6.15396 21.0732 6.67208 21.2571 7.2052 21.2498H16.7987C17.3318 21.2571 17.85 21.0732 18.2592 20.7315C18.6685 20.3898 18.9418 19.9128 19.0298 19.3869L20.703 9.34719C20.7657 8.91228 20.6986 8.46855 20.5101 8.07164C20.3215 7.67474 20.02 7.34234 19.6433 7.11615Z" stroke="black" stroke-width="1.5" stroke-linecap="round" stroke-linejoin="round"/>
<path d="M13.6529 10.1392H10.3064C9.38221 10.1392 8.63306 10.8884 8.63306 11.8125V15.1591C8.63306 16.0832 9.38221 16.8323 10.3064 16.8323H13.6529C14.5771 16.8323 15.3262 16.0832 15.3262 15.1591V11.8125C15.3262 10.8884 14.5771 10.1392 13.6529 10.1392Z" stroke="black" stroke-width="1.5" stroke-linecap="round" stroke-linejoin="round"/>
</svg>
