<svg width="20" height="20" viewBox="0 0 20 20" fill="none" xmlns="http://www.w3.org/2000/svg">
<path d="M2.41581 10.6122C2.33408 10.421 2.29166 10.2118 2.29166 10C2.29166 9.78818 2.33408 9.57902 2.41581 9.38785C3.08936 7.78753 4.16556 6.44159 5.51261 5.51486C6.85966 4.58813 8.41907 4.12085 9.99999 4.17023C11.5809 4.12085 13.1403 4.58813 14.4874 5.51486C15.8344 6.44159 16.9107 7.78753 17.5842 9.38785C17.6659 9.57902 17.7083 9.78818 17.7083 10C17.7083 10.2118 17.6659 10.421 17.5842 10.6122C16.9107 12.2125 15.8344 13.5584 14.4874 14.4852C13.1403 15.4119 11.5809 15.8792 9.99999 15.8298C8.41907 15.8792 6.85966 15.4119 5.51261 14.4852C4.16556 13.5584 3.08936 12.2125 2.41581 10.6122Z" stroke="black" stroke-width="1.5" stroke-linecap="round" stroke-linejoin="round"/>
<path d="M10 12.9166C11.6108 12.9166 12.9167 11.6108 12.9167 9.99998C12.9167 8.38915 11.6108 7.08331 10 7.08331C8.38918 7.08331 7.08334 8.38915 7.08334 9.99998C7.08334 11.6108 8.38918 12.9166 10 12.9166Z" stroke="black" stroke-width="1.5" stroke-linecap="round" stroke-linejoin="round"/>
</svg>
