<svg width="16" height="16" viewBox="0 0 16 16" fill="none" xmlns="http://www.w3.org/2000/svg">
<path d="M9.88859 8.00016C9.88859 7.7802 9.80249 7.56905 9.64885 7.41178L5.25773 3.02018L5.22355 2.98209C5.06338 2.7857 5.07468 2.4962 5.25773 2.31315C5.44079 2.13009 5.73029 2.11879 5.92668 2.27897L5.96477 2.31315L10.3564 6.70426L10.3588 6.70719L10.4208 6.77311C10.7215 7.10986 10.8886 7.54658 10.8886 8.00016L10.8866 8.09049C10.8645 8.54148 10.6772 8.97003 10.3588 9.29313L5.96477 13.6867C5.7695 13.8819 5.453 13.8819 5.25773 13.6867C5.06255 13.4914 5.0625 13.1749 5.25773 12.9796L9.64641 8.59098C9.7822 8.45319 9.86586 8.27356 9.88469 8.08268L9.88859 8.00016Z" fill="#676767"/>
</svg>
