<svg width="24" height="24" viewBox="0 0 24 24" fill="none" xmlns="http://www.w3.org/2000/svg">
<path d="M18.0244 16.9565C16.8534 18.124 15.3631 18.9186 13.7411 19.2402C12.1192 19.5618 10.4383 19.3961 8.91054 18.7638C7.3827 18.1315 6.07628 17.061 5.15596 15.6873C4.23565 14.3136 3.74265 12.6981 3.73914 11.0447" stroke="black" stroke-width="1.5" stroke-miterlimit="10" stroke-linecap="round"/>
<path d="M17.35 21.25L18.1817 17.8782C18.22 17.7312 18.228 17.578 18.2054 17.4278C18.1827 17.2776 18.13 17.1336 18.0501 17.0044C17.9703 16.8752 17.8651 16.7635 17.7409 16.6761C17.6168 16.5886 17.4761 16.5273 17.3276 16.4957L13.9557 15.6528" stroke="black" stroke-width="1.5" stroke-linecap="round" stroke-linejoin="round"/>
<path d="M5.97571 7.04337C7.14667 5.87594 8.63706 5.0814 10.259 4.75978C11.8808 4.43815 13.5617 4.60396 15.0895 5.23616C16.6174 5.86846 17.9238 6.93894 18.8442 8.31272C19.7644 9.68639 20.2574 11.3019 20.2609 12.9553" stroke="black" stroke-width="1.5" stroke-miterlimit="10" stroke-linecap="round"/>
<path d="M6.65009 2.75L5.81838 6.12176C5.78013 6.26873 5.77208 6.42201 5.79469 6.57214C5.8173 6.72237 5.87012 6.86639 5.94996 6.99557C6.02979 7.12485 6.13498 7.23655 6.25918 7.32393C6.38338 7.41132 6.52401 7.47269 6.67258 7.50428L10.0444 8.34714" stroke="black" stroke-width="1.5" stroke-linecap="round" stroke-linejoin="round"/>
</svg>
