<svg width="21" height="12" viewBox="0 0 21 12" fill="none" xmlns="http://www.w3.org/2000/svg">
<path d="M15.1583 9.1C15.5423 9.1 15.8996 9.036 16.2303 8.908C16.5716 8.78 16.8649 8.59333 17.1103 8.348C17.3663 8.092 17.5689 7.772 17.7183 7.388C17.8676 7.004 17.9423 6.556 17.9423 6.044C17.9423 5.532 17.8676 5.084 17.7183 4.7C17.5689 4.316 17.3663 4.00133 17.1103 3.756C16.8649 3.5 16.5716 3.308 16.2303 3.18C15.8996 3.052 15.5423 2.988 15.1583 2.988C14.7743 2.988 14.4169 3.068 14.0863 3.228C13.7556 3.388 13.4409 3.612 13.1423 3.9C12.8543 4.17733 12.5716 4.50267 12.2943 4.876C12.0276 5.23867 11.7609 5.628 11.4943 6.044C11.7609 6.46 12.0276 6.85467 12.2943 7.228C12.5716 7.59067 12.8543 7.916 13.1423 8.204C13.4409 8.48133 13.7556 8.7 14.0863 8.86C14.4169 9.02 14.7743 9.1 15.1583 9.1ZM5.23825 9.1C5.62225 9.1 5.97958 9.02 6.31025 8.86C6.64092 8.7 6.95025 8.48133 7.23825 8.204C7.53692 7.916 7.81958 7.59067 8.08625 7.228C8.36358 6.85467 8.63558 6.46 8.90225 6.044C8.63558 5.628 8.36358 5.23867 8.08625 4.876C7.81958 4.50267 7.53692 4.17733 7.23825 3.9C6.95025 3.612 6.64092 3.388 6.31025 3.228C5.97958 3.068 5.62225 2.988 5.23825 2.988C4.85425 2.988 4.49158 3.052 4.15025 3.18C3.81958 3.308 3.52625 3.5 3.27025 3.756C3.01425 4.00133 2.81158 4.316 2.66225 4.7C2.51292 5.084 2.43825 5.532 2.43825 6.044C2.43825 6.556 2.51292 7.004 2.66225 7.388C2.81158 7.772 3.01425 8.092 3.27025 8.348C3.52625 8.59333 3.81958 8.78 4.15025 8.908C4.49158 9.036 4.85425 9.1 5.23825 9.1ZM15.2703 0.651999C15.9316 0.651999 16.5609 0.785333 17.1583 1.052C17.7663 1.308 18.2943 1.67067 18.7423 2.14C19.2009 2.60933 19.5636 3.17467 19.8303 3.836C20.0969 4.49733 20.2303 5.23333 20.2303 6.044C20.2303 6.85467 20.0969 7.59067 19.8303 8.252C19.5636 8.91333 19.2009 9.484 18.7423 9.964C18.2943 10.4333 17.7663 10.796 17.1583 11.052C16.5609 11.308 15.9316 11.436 15.2703 11.436C14.6729 11.436 14.1289 11.3453 13.6383 11.164C13.1583 10.9827 12.7156 10.7373 12.3103 10.428C11.9049 10.108 11.5263 9.74533 11.1743 9.34C10.8329 8.93467 10.5076 8.508 10.1983 8.06C9.88892 8.508 9.55825 8.93467 9.20625 9.34C8.86492 9.74533 8.49158 10.108 8.08625 10.428C7.68092 10.7373 7.23292 10.9827 6.74225 11.164C6.25158 11.3453 5.71292 11.436 5.12625 11.436C4.46492 11.436 3.83558 11.308 3.23825 11.052C2.64092 10.796 2.11292 10.4333 1.65425 9.964C1.19558 9.484 0.832917 8.91333 0.56625 8.252C0.299583 7.59067 0.16625 6.85467 0.16625 6.044C0.16625 5.23333 0.299583 4.49733 0.56625 3.836C0.832917 3.17467 1.19558 2.60933 1.65425 2.14C2.11292 1.67067 2.64092 1.308 3.23825 1.052C3.83558 0.785333 4.46492 0.651999 5.12625 0.651999C5.71292 0.651999 6.25158 0.742666 6.74225 0.923999C7.23292 1.10533 7.68092 1.356 8.08625 1.676C8.49158 1.98533 8.86492 2.34267 9.20625 2.748C9.55825 3.15333 9.88892 3.58 10.1983 4.028C10.5076 3.58 10.8329 3.15333 11.1743 2.748C11.5263 2.34267 11.9049 1.98533 12.3103 1.676C12.7156 1.356 13.1583 1.10533 13.6383 0.923999C14.1289 0.742666 14.6729 0.651999 15.2703 0.651999Z" fill="#F9FBF9"/>
</svg>
