<svg width="16" height="16" viewBox="0 0 16 16" fill="none" xmlns="http://www.w3.org/2000/svg">
<path d="M5.11121 8.00016C5.11121 7.51628 5.30183 7.05184 5.64148 6.7072L5.64392 6.70427L10.035 2.31315L10.0731 2.27897C10.2695 2.11874 10.559 2.13014 10.7421 2.31315C10.9251 2.49616 10.9368 2.78571 10.7767 2.9821L10.7421 3.02018L6.35095 7.41179C6.19736 7.56905 6.11121 7.78024 6.11121 8.00016L6.11511 8.08268C6.13393 8.27353 6.21764 8.4532 6.35339 8.59099L10.7421 12.9797L10.7767 13.0177C10.9369 13.2141 10.9251 13.5036 10.7421 13.6867C10.559 13.8697 10.2695 13.8815 10.0731 13.7214L10.035 13.6867L5.64148 9.29313C5.32306 8.97004 5.13582 8.54148 5.11365 8.0905L5.11121 8.00016Z" fill="#676767"/>
</svg>
